<svg width="325" height="385" xmlns="http://www.w3.org/2000/svg" version="1.0" preserveAspectRatio="xMidYMid meet">
 <g>
  <title>Layer 1</title>
  <g transform="translate(0 385) scale(0.1 -0.1)" fill="#000000" id="svg_1">
   <path d="m90,2432l0,-1358l183,-119c100,-66 265,-174 367,-241c102,-66 349,-228 550,-359c201,-131 377,-246 391,-256l26,-18l224,147c124,81 467,305 762,497l537,350l0,1358l0,1357l-1520,0l-1520,0l0,-1358zm1103,408c21,-17 26,-18 31,-5c14,38 26,10 26,-60c0,-84 -12,-97 -29,-32c-6,24 -20,56 -32,71c-17,22 -28,27 -58,24c-30,-2 -39,-9 -53,-38c-16,-31 -18,-67 -18,-285c0,-218 2,-254 18,-285c14,-29 23,-36 53,-38c30,-3 41,2 58,24c12,15 26,47 32,71c17,65 29,52 29,-32c0,-70 -12,-98 -26,-60c-5,12 -11,11 -34,-7c-40,-29 -128,-22 -166,13c-50,45 -54,70 -54,316c0,255 5,277 69,320c44,30 118,31 154,3zm408,-19c58,-58 52,-121 -13,-121c-50,0 -59,62 -12,88c26,15 -17,52 -59,52c-68,0 -104,-93 -76,-193c13,-50 42,-77 79,-77c17,0 30,-4 30,-10c0,-5 -10,-10 -22,-10c-41,0 -100,-43 -126,-90c-19,-37 -23,-56 -20,-106c6,-101 63,-164 148,-164c119,0 197,118 151,228c-12,29 -17,32 -57,32c-46,0 -84,-25 -84,-56c0,-14 2,-14 16,1c42,41 111,-7 78,-54c-22,-31 -69,-28 -105,8c-33,33 -37,67 -14,111c21,41 43,50 124,50c72,0 101,13 101,48c0,12 -3,13 -12,4c-17,-17 -63,-15 -78,3c-19,22 -4,64 25,71c49,12 115,-38 115,-86c0,-32 -34,-80 -65,-91c-32,-12 -33,-12 -19,-45c25,-59 10,-138 -34,-187c-60,-67 -198,-77 -288,-22c-86,53 -118,159 -75,244c22,42 78,95 111,106c21,7 20,8 -13,31c-43,29 -72,97 -63,148c14,74 81,126 165,126c49,0 57,-3 92,-39zm694,29c3,-5 -3,-10 -15,-10c-21,0 -21,0 -18,-292c3,-254 5,-297 20,-324c29,-53 78,-49 122,9c20,27 21,42 24,318c3,288 3,289 -18,289c-12,0 -18,5 -15,10c8,12 92,13 99,1c3,-4 -6,-13 -19,-19l-25,-12l0,-275c0,-299 -2,-311 -56,-354c-35,-28 -105,-28 -150,-1c-18,12 -42,40 -53,64c-20,40 -21,60 -21,314c0,268 0,272 -21,272c-11,0 -17,5 -14,10c3,6 39,10 80,10c41,0 77,-4 80,-10zm-1680,-20c60,-29 85,-79 85,-170c0,-122 -39,-172 -150,-193l-60,-12l0,-132c0,-129 1,-132 23,-136c12,-2 -18,-4 -68,-4c-49,0 -80,2 -67,4l22,4l0,324l0,324l-22,4c-13,2 26,5 86,6c91,1 117,-2 151,-19zm278,13l-23,-4l0,-324l0,-324l23,-4c12,-2 -18,-4 -68,-4c-49,0 -80,2 -67,4l22,4l0,324l0,324l-22,4c-13,2 18,4 67,4c50,0 80,-2 68,-4zm1207,-63c0,-78 -14,-94 -24,-26c-9,61 -36,86 -91,86l-45,0l0,-160l0,-160l24,0c31,0 56,25 56,56c0,15 6,24 15,24c12,0 15,-16 15,-85c0,-69 -3,-85 -15,-85c-9,0 -15,9 -15,24c0,31 -25,56 -56,56l-24,0l0,-159c0,-158 0,-160 23,-164c12,-2 -18,-4 -68,-4c-49,0 -80,2 -67,4l22,4l0,324l0,324l-22,4c-13,2 43,5 125,6l147,1l0,-70zm564,3c14,-38 50,-133 80,-213l55,-145l1,207c0,189 -2,207 -17,211c-10,3 7,5 37,5c47,1 52,-1 33,-10l-23,-11l0,-324c0,-301 -1,-323 -17,-323c-14,0 -33,41 -83,178c-35,97 -81,220 -102,272l-37,95l0,-267l-1,-267l23,-4c12,-2 -5,-5 -38,-5c-49,-1 -56,1 -40,10c11,6 23,16 27,22c4,6 8,145 8,308l0,297l-27,15c-27,15 -27,15 34,16l61,0l26,-67zm-1138,-1798c24,-14 51,-39 61,-55c9,-17 20,-30 23,-30c3,0 14,13 23,30c21,35 87,76 139,85c50,9 127,-17 166,-58c110,-114 75,-253 -112,-442c-56,-56 -127,-121 -159,-145l-57,-43l-75,58c-182,139 -315,320 -315,427c0,159 168,254 306,173z" id="svg_2" fill="#ff1717"/>
   <path d="m490,2660c0,-175 1,-180 21,-180c61,0 98,67 99,177c0,89 -21,148 -61,168c-59,31 -59,32 -59,-165z" id="svg_3" fill="#ff1717"/>
  </g>
 </g>

</svg>